<svg xmlns="http://www.w3.org/2000/svg" viewBox="0 0 64 64" width="64" height="64">
  <defs>
    <linearGradient id="seni-grad" x1="0%" y1="0%" x2="100%" y2="100%">
      <stop offset="0%" style="stop-color:#F59E0B;stop-opacity:1" />
      <stop offset="100%" style="stop-color:#FBBF24;stop-opacity:1" />
    </linearGradient>
  </defs>
  <circle cx="32" cy="32" r="28" fill="url(#seni-grad)" stroke="#fff" stroke-width="3"/>
  <!-- Palette -->
  <path d="M20 30c0-6 6-10 12-10s12 4 12 10c0 2-1 4-3 4h-2c-1 0-2 1-2 2s1 2 2 2c3 0 3 4 0 4-8 0-14-6-14-14z" fill="white"/>
  <!-- Paint dots -->
  <circle cx="26" cy="28" r="2" fill="#EF4444"/>
  <circle cx="32" cy="26" r="2" fill="#3B82F6"/>
  <circle cx="38" cy="28" r="2" fill="#10B981"/>
  <circle cx="34" cy="32" r="2" fill="#8B5CF6"/>
  <!-- Brush -->
  <path d="M42 20l4 4-8 8-4-4z" fill="white"/>
  <rect x="44" y="16" width="2" height="6" fill="#8B4513" transform="rotate(45 45 19)"/>
</svg>
