<svg xmlns="http://www.w3.org/2000/svg" viewBox="0 0 64 64" width="64" height="64">
  <defs>
    <linearGradient id="craft-grad" x1="0%" y1="0%" x2="100%" y2="100%">
      <stop offset="0%" style="stop-color:#B45309;stop-opacity:1" />
      <stop offset="100%" style="stop-color:#D97706;stop-opacity:1" />
    </linearGradient>
  </defs>
  <circle cx="32" cy="32" r="28" fill="url(#craft-grad)" stroke="#fff" stroke-width="3"/>
  <path d="M24 20c-2 0-4 2-4 4v16c0 2 2 4 4 4h16c2 0 4-2 4-4V24c0-2-2-4-4-4H24z" fill="white"/>
  <circle cx="28" cy="28" r="3" fill="#B45309"/>
  <circle cx="36" cy="32" r="2" fill="#B45309"/>
  <path d="M26 36c2-2 4-2 6 0s4 2 6 0" stroke="#B45309" stroke-width="2" fill="none"/>
  <circle cx="32" cy="20" r="2" fill="#FCD34D"/>
</svg>
